<?xml version="1.0" encoding="UTF-8"?>
<svg width="1200pt" height="1200pt" version="1.1" viewBox="0 0 1200 1200" xmlns="http://www.w3.org/2000/svg">
 <g>
  <path d="m599.43 146.57c40.152 0 73.211-32.762 73.211-73.066 0-40.738-33.062-73.5-73.211-73.5-40.453 0-73.223 32.762-73.223 73.5 0.007813 40.309 32.77 73.066 73.223 73.066"/>
  <path d="m716.41 170.21h-235.15c-51.887 0-93.66 42.48-93.66 95.258v175.41c0 43.645 57.707 43.645 57.707 0v-169.33h59.879v213.41c30.59 7.3906 61.895 12.898 94.957 12.898 32.762 0 63.781-5.5078 94.234-12.613v-213.69h59.449v169.33c0 43.934 57.707 43.934 57.707 0v-174.41c-0.011718-48.277-37.992-96.266-95.125-96.266"/>
  <path d="m876.77 553.39c-78.863 54.07-174.84 85.824-277.78 85.824-102.35 0-197.18-31.309-276.32-84.371l-62.051 92.207c96.551 65.531 213.12 103.51 338.38 103.51 126.14 0 243.28-38.41 340.13-104.38z"/>
  <path d="m995.36 743.59c-112.79 76.848-249.07 121.5-395.79 121.5-146.15 0-281.84-44.23-394.34-120.19l-62.641 90.324c130.2 88.43 287.65 140.04 456.98 140.04 169.62 0 327.07-51.898 457.85-140.33z"/>
  <path d="m1113.1 932.22c-146.72 99.602-323.3 157.6-513.8 157.6-190.21 0-366.8-57.996-513.23-157.16l-61.191 91.633c163.68 110.9 361.59 175.71 574.42 175.71 213.12 0 411.46-65.242 575.86-176.87z"/>
 </g>
</svg>
