<?xml version="1.0" encoding="UTF-8"?>
<svg width="1200pt" height="1200pt" version="1.1" viewBox="0 0 1200 1200" xmlns="http://www.w3.org/2000/svg">
 <g>
  <path d="m576.29 188.66c52.117 0 94.199-42.359 94.199-94.477s-42.082-94.188-94.199-94.188c-52.117 0-94.477 42.07-94.477 94.188s42.363 94.477 94.477 94.477z"/>
  <path d="m416.89 204.27c3.625-14.496-5.5664-28.98-19.789-32.605l-78.59-18.949c-14.773-3.3359-29.258 5.293-32.605 19.789l-66.043 273.38c-3.625 14.496 5.293 28.98 19.789 32.605l78.863 18.949c14.219 3.625 28.98-5.293 32.328-19.789z"/>
  <path d="m779.73 1176.6c0 0.5625-0.27734 1.1289-0.27734 1.3906 0 11.988 9.7578 21.742 21.742 21.742 10.871 0 20.062-8.3633 21.457-18.949l158.29-858.61v-1.6797c0-11.699-9.4805-21.457-21.457-21.457-10.871 0-19.234 8.3633-21.469 18.949z"/>
  <path d="m253.03 1120.3c-0.83984 4.4648-1.1172 8.9297-1.1172 13.379 0 36.793 29.543 66.336 66.324 66.336 30.098 0 55.465-20.062 63.539-47.375l113.99-471.8 108.68 469.02c6.9727 28.98 33.168 50.172 64.094 50.172 36.793 0 66.324-29.543 66.324-66.324 0-5.0156-0.55078-9.7422-1.3789-14.484l-149.1-623.16 12.539-54.898 9.7422 43.199c8.9141 28.141 34.559 30.938 34.559 30.938l153.55 39.012c3.0703 0.5625 6.1328 0.83984 9.2031 0.83984 25.078 0 45.422-20.062 45.422-45.145 0-21.457-14.762-39.574-34.824-44.305l-132.95-33.445-36.504-148.26c-17.281-82.766-96.422-80.82-96.422-80.82-76.922-1.957-96.145 78.863-96.145 78.863z"/>
 </g>
</svg>
