<?xml version="1.0" encoding="UTF-8"?>
<svg width="1200pt" height="1200pt" version="1.1" viewBox="0 0 1200 1200" xmlns="http://www.w3.org/2000/svg">
 <g>
  <path d="m799.91 243.47v70.262c0 19.668 15.816 35.652 35.27 35.652h206.53c19.621 0 35.293-15.984 35.293-35.652v-70.262z"/>
  <path d="m1076.7 471.1h-105.7c-15.805 0-28.285 12.742-28.285 28.441v78.098c0 15.852 12.48 28.453 28.285 28.453h105.7c15.816 0 28.285-12.602 28.285-28.453v-78.098c0.011718-15.699-12.457-28.441-28.285-28.441"/>
  <path d="m1076.7 874.48h-105.7c-15.805 0-28.285 12.613-28.285 28.586v77.965c0 15.695 12.48 28.609 28.285 28.609h105.7c15.816 0 28.285-12.91 28.285-28.609v-77.965c0.011718-15.988-12.457-28.586-28.285-28.586"/>
  <path d="m964.18 1065.1h-733.97c-15.504 0-28.285 12.613-28.285 28.273v78.266c0 15.672 12.781 28.297 28.285 28.297h733.97c15.504 0 27.984-12.637 27.984-28.297v-78.266c-0.003907-15.66-12.48-28.273-27.984-28.273"/>
  <path d="m257.21 981.06v-78.109c0-15.84-12.77-28.441-28.285-28.441l-106.02 0.003907c-15.359 0-27.828 12.602-27.828 28.441v78.109c0 15.672 12.48 28.598 27.828 28.598h106.01c15.516-0.003906 28.297-12.93 28.297-28.602"/>
  <path d="m122.95 606.06h106.01c15.504 0 28.285-12.613 28.285-28.441v-78.098c0-15.707-12.77-28.453-28.285-28.453l-106.01 0.003906c-15.504 0.015626-27.984 12.758-27.984 28.465v78.098c0 15.828 12.48 28.426 27.984 28.426"/>
  <path d="m146.73 349.49h206.38c19.609 0 35.426-16.008 35.426-35.676v-70.246l-277.09-0.003906v70.246c0 19.672 15.66 35.68 35.293 35.68"/>
  <path d="m864.95 471.1h-106c-15.516 0-27.984 12.742-27.984 28.441v78.098c0 15.852 12.469 28.453 27.984 28.453h106c15.504 0 27.996-12.602 27.996-28.453v-78.098c0-15.699-12.492-28.441-27.996-28.441"/>
  <path d="m1000.1 780.18v-78.109c0-15.539-12.781-28.453-28.285-28.453h-106c-15.371 0-27.828 12.91-27.828 28.453v78.109c0 15.984 12.457 28.598 27.828 28.598h106c15.492 0 28.285-12.613 28.285-28.598"/>
  <path d="m758.91 1009.6h106.01c15.516 0 27.996-12.938 27.996-28.609v-77.953c0-15.996-12.48-28.609-27.996-28.609h-106.01c-15.504 0-27.973 12.613-27.973 28.609v77.953c0 15.672 12.469 28.609 27.973 28.609"/>
  <path d="m788.02 780.18v-78.109c0-15.539-12.457-28.453-27.984-28.453l-106 0.003906c-15.359 0-28.141 12.91-28.141 28.453v78.109c0 15.984 12.77 28.598 28.141 28.598h106c15.527-0.003906 27.984-12.617 27.984-28.602"/>
  <path d="m547.12 1009.6h105.71c15.504 0 28.273-12.938 28.273-28.609v-77.953c0-15.996-12.77-28.609-28.273-28.609l-105.71 0.003906c-15.805 0-28.285 12.613-28.285 28.609v77.953c0.003906 15.668 12.48 28.605 28.285 28.605"/>
  <path d="m652.88 606.06c15.516 0 28.273-12.613 28.273-28.441v-78.098c0-15.707-12.758-28.453-28.273-28.453h-105.7c-15.828 0-28.297 12.742-28.297 28.453v78.098c0 15.828 12.469 28.441 28.297 28.441z"/>
  <path d="m576.23 780.18v-78.109c0-15.539-12.77-28.453-28.285-28.453h-106c-15.371 0-27.84 12.91-27.84 28.453v78.109c0 15.984 12.48 28.598 27.84 28.598h106c15.516 0 28.285-12.613 28.285-28.598"/>
  <path d="m336.52 1009.6h106c15.504 0 28.285-12.938 28.285-28.609v-77.953c0-15.996-12.781-28.609-28.285-28.609l-106 0.003906c-15.516 0-27.996 12.613-27.996 28.609v77.953c0.011718 15.668 12.48 28.605 27.996 28.605"/>
  <path d="m441.08 606.06c15.504 0 27.984-12.613 27.984-28.441v-78.098c0-15.707-12.48-28.453-27.984-28.453l-106 0.003906c-15.527 0-27.996 12.742-27.996 28.453v78.098c0 15.828 12.469 28.441 27.996 28.441z"/>
  <path d="m201.96 702.1v78.121c0 15.816 12.781 28.441 28.297 28.441h105.98c15.371 0 27.84-12.625 27.84-28.441v-78.121c0-15.695-12.469-28.586-27.84-28.586h-105.98c-15.516 0-28.297 12.898-28.297 28.586"/>
  <path d="m388.51 215.53c0-20.281 16.871-55.188 205.91-55.789 188.59-0.61328 205.48 35.508 205.48 55.789v5.8555h277.11v-7.3906c-0.003906-36.445-64.945-214-482.58-214-418.07 0-483.01 177.55-483.01 214v7.3906h277.11z"/>
 </g>
</svg>
