<?xml version="1.0" encoding="UTF-8"?>
<svg width="1200pt" height="1200pt" version="1.1" viewBox="0 0 1200 1200" xmlns="http://www.w3.org/2000/svg">
 <g>
  <path d="m435.98 804.46v-207.52c0-84.277 68.281-152.72 153.04-152.72 84.289 0 152.57 68.438 152.57 152.72v207.52z"/>
  <path d="m599.99 113.8c221.95 0 401.83 179.89 401.83 401.82v518.14h114.42l-0.30078-518.14c0.011719-284.73-231.21-515.62-515.95-515.62-284.88 0-515.94 230.89-515.94 515.63l-0.3125 518.46 114.28-0.3125v-518.15c-0.011719-221.94 180.02-401.83 401.97-401.83"/>
  <path d="m619.94 848.87h-62.316l-7.5352 43.633h77.844z"/>
  <path d="m639.23 959.22h-100.29l-11.617 65.293h122.89z"/>
  <path d="m665.3 1112.6h-153.04l-14.605 87.445h183.01z"/>
 </g>
</svg>
