<?xml version="1.0" encoding="UTF-8"?>
<svg width="1200pt" height="1200pt" version="1.1" viewBox="0 0 1200 1200" xmlns="http://www.w3.org/2000/svg">
 <g>
  <path d="m410.9 296.37c61.609 0 111.27-49.945 111.27-111.41 0.011719-61.469-49.656-111.27-111.27-111.27-61.465 0-111.25 49.801-111.25 111.27 0.003906 61.473 49.793 111.41 111.25 111.41z"/>
  <path d="m0.27734 904.91c26.039 0 51.086-5.9766 73.559-16.078 23.039-10.68 49.078-16.934 76.117-16.934 27.035 0 53.074 6.2539 75.984 16.934 22.621 10.105 47.809 15.938 74.125 15.938 26.184 0 51.359-5.832 73.848-15.938 22.906-10.68 48.949-16.934 76.117-16.934 27.035 0 52.934 6.2539 76.129 16.934 22.332 10.105 47.664 15.938 73.836 15.938 26.172 0 51.504-5.832 73.848-15.938 23.184-10.68 49.078-16.934 76.246-16.934 27.035 0 52.934 6.2539 75.984 16.934 22.621 10.105 47.797 15.938 73.98 15.938 26.316 0 51.359-5.832 73.992-15.938 22.895-10.68 48.938-16.934 75.973-16.934 23.195 0 45.672 4.4023 66.023 12.371 33.012-36.145 53.496-84.227 53.496-136.87 0-112.12-90.77-202.88-202.75-202.88l-22.754 2.4102c-24.898 101.17-126.07 105.43-126.07 105.43l-462.96-0.14453-38.711-22.766 93.336-156.65 102.16 59.039c61.176 39.695 93.047-15.938 93.047-15.938l102.45-167.04c44.531-72.562-49.945-130.75-94.199-57.91l-71.711 117.1-170.46-94.332c-118.09-65.879-168.18 43.246-168.18 43.246l-133.85 229.37c-22.766 47.664-2.4258 68.148-2.4258 68.148l-66.168-0.14453z"/>
  <path d="m1200 1126.3c-26.184 0-51.359-5.832-73.703-15.938-23.195-10.68-49.094-16.934-76.262-16.934-27.035 0-53.074 6.2539-75.973 16.934-22.633 10.105-47.676 15.938-73.992 15.938-26.184 0-51.359-5.832-73.98-15.938-23.051-10.68-48.949-16.934-75.984-16.934-27.18 0-53.074 6.2539-76.246 16.934-22.344 10.105-47.676 15.938-73.848 15.938s-51.504-5.832-73.836-15.938c-23.195-10.68-49.094-16.934-76.129-16.934-27.18 0-53.219 6.2539-76.117 16.934-22.488 10.105-47.664 15.938-73.848 15.938-26.316 0-51.504-5.832-74.125-15.938-22.906-10.68-48.949-16.934-75.984-16.934s-53.074 6.2539-76.117 16.934c-22.496 10.094-47.672 15.938-73.855 15.938v-110.7c26.184 0 51.359-5.9766 73.848-16.078 23.039-10.68 49.078-16.934 76.117-16.934 27.035 0 53.074 6.2539 75.984 16.934 22.621 10.105 47.809 16.078 74.125 16.078 26.184 0 51.359-5.9766 73.848-16.078 22.906-10.68 48.949-16.934 76.117-16.934 27.035 0 52.934 6.2539 76.129 16.934 22.332 10.105 47.664 16.078 73.836 16.078s51.504-5.9766 73.848-16.078c23.184-10.68 49.078-16.934 76.246-16.934 27.035 0 52.934 6.2539 75.984 16.934 22.621 10.105 47.797 16.078 73.98 16.078 26.316 0 51.359-5.9766 73.992-16.078 22.895-10.68 48.938-16.934 75.973-16.934 27.18 0 53.074 6.2539 76.262 16.934 22.332 10.105 47.52 16.078 73.703 16.078l-0.003907 110.7z"/>
 </g>
</svg>
