<?xml version="1.0" encoding="UTF-8"?>
<svg width="1200pt" height="1200pt" version="1.1" viewBox="0 0 1200 1200" xmlns="http://www.w3.org/2000/svg">
 <g>
  <path d="m594.91 351.05c95.93 0 173.38-78.828 173.38-175.68 0-96.984-77.445-175.37-173.38-175.37s-173.47 78.383-173.47 175.37c0 96.852 77.543 175.68 173.47 175.68z"/>
  <path d="m763.59 393.76c79.32 2.832 112.7 67.094 112.7 67.094l256.09 355.3c10.598 15.758 16.777 35.039 16.777 55.848 0 55.246-44.258 100.11-98.914 100.11-13.078 0-24.973-2.9297-36.266-7.2461l-154.6-43.656v155.96l-536.69-0.007812v-155.95l-154.61 43.633c-10.895 4.3438-23.172 7.2734-36.359 7.2734-54.672 0-98.832-44.855-98.832-100.11 0-20.82 6.1094-40.117 17.172-55.871l255.93-355.29s33.59-64.262 112.63-67.078h344.96zm-172.49 574.5 200.26-67.273-4.3789-0.88672c-138.3-40.992-84.551-225.67 53.438-184.46l18.996 6.6836-0.003906-208.44-268.3 88.559-268.41-88.57v208.4l18.898-6.6719c138.21-41.219 192.06 143.46 53.762 184.45l-4.5 0.92578z"/>
  <path d="m1142.4 1200c13.715 0 24.719-11.102 24.719-24.949 0-13.934-11.004-24.961-24.719-24.961l-1083.1 0.003906c-13.414 0-24.695 11.027-24.695 24.961 0 13.836 11.281 24.949 24.695 24.949z"/>
 </g>
</svg>
