<?xml version="1.0" encoding="UTF-8"?>
<svg width="1200pt" height="1200pt" version="1.1" viewBox="0 0 1200 1200" xmlns="http://www.w3.org/2000/svg">
 <g>
  <path d="m431.84 505.27c10.633 0 19.355-8.7227 19.355-19.355l0.27734-121.84c0-10.633-8.7227-19.355-19.355-19.355l-279.68-0.003906c-10.633 0-19.355 8.7227-19.355 19.355l-0.27734 121.84c0 10.633 8.7227 19.355 19.355 19.355zm400.43-161.09c4.9062 0 8.7344-4.0938 8.7344-9 0-1.9062-0.55078-3.5391-1.6445-5.1836l-44.16-63.516c-1.6445-1.9062-4.1055-3.2656-7.1055-3.2656h-97.309c-8.7227 0-15.793 7.0938-15.793 15.805v49.344c0 8.7227 7.0781 15.816 15.793 15.816zm-29.438-119.41c8.9883 0 17.172 4.0938 22.633 10.355l84.227 121.03c1.9062 3 3.2656 6.2656 3.2656 10.094 0 9-7.6328 16.633-16.895 16.633l-144.74-0.27734c-49.871 0-90.227 40.344-90.227 90.227v146.65h-661.04v-302.84s-5.4492-92.137 89.688-92.137z"/>
  <path d="m1003.7 639.12-186.45-0.26562c-16.645 0-29.988-13.355-29.988-29.988v-95.953c0-16.633 13.344-29.988 29.711-29.988h101.41c5.1836 0 9.8047 2.4609 13.078 6.2656l85.598 123.49c1.9062 2.7227 3.2656 5.9883 3.2656 9.8047-0.007813 9.2773-7.3633 16.633-16.629 16.633zm162.18 103.04v-63.516c0-25.621-16.344-47.438-38.977-55.609l-55.055-18.539-109.86-158.65c-5.4492-6.5391-13.633-10.633-22.633-10.633h-174.18c-28.332 0-51.238 22.895-51.238 51.254l0.26563 185.9h-714.18v134.11c0 19.355 15.805 35.172 35.16 35.172h94.32c5.1836-78.238 83.688-140.39 163.29-140.39 79.598 0 158.1 62.16 163.55 140.39h350c5.7344-77.699 83.965-139.29 163.56-139.29 79.309 0 157.55 61.598 163.27 139.29h31.344c19.633 0 35.438-15.805 35.438-35.172v-64.32z"/>
  <path d="m969.39 914.44c25.883 0 46.871-20.988 46.871-46.883 0-25.895-20.988-46.883-46.871-46.883-25.895 0-46.621 20.988-46.621 46.883 0.003906 25.895 20.727 46.883 46.621 46.883zm-107.95-46.887c0-59.699 48.516-107.95 107.95-107.95 59.699 0 108.21 48.254 108.21 107.95s-48.516 107.94-108.21 107.94c-59.438 0-107.95-48.238-107.95-107.94z"/>
  <path d="m292.82 912.53c25.895 0 46.883-20.988 46.883-46.883s-21-46.883-46.883-46.883c-25.895 0-46.883 20.988-46.883 46.883s20.988 46.883 46.883 46.883zm-107.95-46.883c0-59.699 48.516-107.94 107.95-107.94 59.699 0 107.94 48.254 107.94 107.94s-48.254 107.94-107.94 107.94c-59.426 0-107.95-48.254-107.95-107.94z"/>
 </g>
</svg>
